<svg version="1" xmlns="http://www.w3.org/2000/svg" width="241.333" height="241.333" viewBox="0 0 181.000000 181.000000"><path d="M43.5 25C24.3 38.6 7.7 50.4 6.7 51.2 5 52.4 5 52.9 7.3 62c1.3 5.2 6.1 26.3 10.8 46.7 5.6 25 8.8 37.3 9.7 37.3 1.1 0 59.6 23.5 79 31.7l8.4 3.6 4.6-5.4c2.6-2.9 16.1-17.9 30-33.2 20.1-22.2 25.1-28.3 24.7-30-.2-1.2-1.6-21.1-3.1-44.2-1.4-23.1-2.7-42.2-3-42.4-.2-.2-19.6-5.9-43.2-12.6C101.7 6.8 81.6 1 80.5.7 79 .2 70.1 6.1 43.5 25zM86 10.2c1.3 1 2.2 1.9 1.9 2.1-.7.5-54.3 25.9-55.9 26.5-.8.2 9.3-7.2 22.5-16.6L78.4 5.1 81 6.8c1.5.9 3.7 2.5 5 3.4zm17.5 1.6c-.7.8-8.3-1-10.2-2.3-1.4-1.1-.4-1 4.4.3 3.4.9 6 1.8 5.8 2zm28.7 10.8c17.8 3.6 32.5 6.7 32.7 6.9.4.5 4.2 61.6 3.9 63.7-.2 1.1-6.9-5.7-19.4-20-10.5-11.9-26.2-29.7-34.8-39.5C106 24 99.1 16 99.4 16c.3 0 15 3 32.8 6.6zM73.8 61.2c-8.2 24.4-16.1 47.6-17.5 51.6-1.4 4.1-2.9 7-3.3 6.5-3-3.2-41.9-64.8-41.3-65.4.9-.8 75.3-36.7 76.5-36.8.4-.1-6.1 19.8-14.4 44.1zm56.4-3.1c20 22.7 36.3 41.4 36.2 41.8 0 .6-107.6 23-108.3 22.5C57.8 122.1 93.3 17 93.7 17c.1 0 16.5 18.5 36.5 41.1zM32.5 95.9c9.7 15.1 17.9 27.9 18.1 28.5.2.6-4.6 4.4-10.6 8.4-6.1 3.9-11 7-11 6.7 0-.9-16-70.8-16.6-72.5-1.3-3.7 3.3 2.9 20.1 28.9zm129.9 14.3c-9 12.3-46.7 63.4-47.5 64.2-.4.5-12.9-9.8-27.9-22.9-14.9-13.1-26.7-24.1-26.3-24.5.4-.4 16.8-3.9 36.3-7.9 19.5-3.9 42.7-8.7 51.5-10.5 8.8-1.9 16.4-3.5 16.8-3.5.5-.1-.8 2.3-2.9 5.1zm1.8 10.7c-3.7 4.1-9.3 10.2-12.5 13.6l-5.8 6 6.1-8.5c3.4-4.7 8.7-12 11.8-16.3 5.5-7.6 5.7-7.8 6.4-5.1.6 2.4-.1 3.6-6 10.3zm-85.9 28.8c13 11.4 23.5 20.9 23.3 21.1-.5.4-68.6-27.2-68.6-27.8 0-.6 20.2-14 21.1-14 .3 0 11.2 9.3 24.2 20.7z"/></svg>